<mxfile host="app.diagrams.net" modified="2024-05-11T09:10:43.595Z" agent="Mozilla/5.0 (Windows NT 10.0; Win64; x64) AppleWebKit/537.36 (KHTML, like Gecko) Chrome/120.0.0.0 Safari/537.36 Edg/120.0.0.0" version="24.3.1" etag="dTKKVI8x8tb18RpE6Tl5" type="github">
  <diagram name="第 1 页" id="IKI6N14KD9crZWQqSluS">
    <mxGraphModel>
      <root>
        <mxCell id="0" />
        <mxCell id="1" parent="0" />
      </root>
    </mxGraphModel>
  </diagram>
</mxfile>
